<svg id="Layer_1" data-name="Layer 1" xmlns="http://www.w3.org/2000/svg" viewBox="0 0 90.36 188.39"><defs><style>.cls-1{fill:#f3b43f;}.cls-2{fill:#fdecd3;}</style></defs><path class="cls-1" d="M90.33,188.39a104.07,104.07,0,0,1-28.08-5.58A94.12,94.12,0,0,1,2,113.43,92.33,92.33,0,0,1,.05,93c0-1.11,0-2.23,0-3.34A102.93,102.93,0,0,1,5.59,62.33,94.09,94.09,0,0,1,77.25,1.84C80.63,1.22,84,.9,87.44.45a4.28,4.28,0,0,1,2.89,0V50.34a4.65,4.65,0,0,1-2.64,1A43.36,43.36,0,0,0,50.91,89.68a39,39,0,0,0,2.82,20.58c6.41,15.17,17.81,24.27,34.13,27.07.85.15,1.78.06,2.47.73Z"/><path class="cls-2" d="M90.33.49l-2.89,0c0-.15,0-.3,0-.44.88,0,1.76,0,2.64,0C90.58,0,90.23.34,90.33.49Z"/></svg>